<svg width="70" height="57" fill="none" xmlns="http://www.w3.org/2000/svg"><path fill-rule="evenodd" clip-rule="evenodd" d="M51.794 2.47c-3.246 2.03-4.205 2.564-4.968 2.764l-.946.248-5.09-.616c-5.71-.692-6.538-.7-8.931-.093-.756.191-1.866.592-2.468.891-.602.298-3.94 2.374-7.42 4.612-6.494 4.178-6.836 4.442-7.086 5.471-.052.216-.328.542-.643.76-.303.21-.743.672-.978 1.027-.767 1.158-.845 1.68-.845 5.694v3.644H0v2.258h18.147c9.98 0 18.122.047 18.092.106-1.03 2.006-1.637 3.655-2.04 5.539-.354 1.657-.348 5.237.01 6.91 1.607 7.48 7.372 13.076 14.752 14.318 9.976 1.678 19.344-5.206 20.837-15.31.568-3.849-.115-7.464-2.166-11.457-.03-.059.49-.106 1.157-.106H70v-2.258h-3.942l-1.199-1.244c-3.608-3.742-8.636-5.752-13.7-5.474-.931.052-1.9.13-2.152.175-.432.078-.459.06-.459-.334 0-.369.07-.438.6-.595 1.046-.309 2.681-1.246 3.775-2.164.582-.488 2.932-2.054 5.222-3.48 2.29-1.425 4.241-2.662 4.337-2.749.134-.122.045-.367-.398-1.094l-.57-.936-1.65 1.026-4.4 2.74c-1.514.94-3.096 2.01-3.515 2.373-1.253 1.088-2.494 1.824-3.795 2.25-1.126.37-1.393.402-3.204.39-1.657-.01-2.33-.087-4.164-.473-1.852-.39-2.62-.476-5.01-.562-1.552-.056-2.99-.173-3.195-.259-.711-.298-1.815-1.473-1.815-1.932 0-.043 1.715-.078 3.81-.078h3.811v-2.258h-9.326l-4.949 2.746c-5.213 2.892-5.855 3.158-6.603 2.739-.501-.282-.693-.886-.428-1.348.197-.343 11.663-7.835 13.12-8.574 1.362-.69 3.456-1.204 4.93-1.212.433-.002 2.99.265 5.685.594 6.786.829 6.255.95 12.263-2.78 1.971-1.225 3.663-2.298 3.759-2.385.136-.124.055-.352-.37-1.042-.298-.486-.567-.905-.597-.932-.03-.026-1.865 1.085-4.077 2.47zm-38.74-.268c-.378.214-.44.322-.785 1.35-.356 1.058-.929 1.683-1.655 1.803-.88.146-1.268.354-1.443.776-.342.827.153 1.44 1.31 1.62.828.128 1.39.726 1.787 1.897.36 1.064.68 1.417 1.28 1.417.596 0 .947-.369 1.268-1.333.166-.5.436-1.08.6-1.287.333-.424 1.045-.767 1.592-.767.506 0 1.056-.588 1.056-1.129 0-.58-.548-1.129-1.13-1.129-.985 0-1.649-.643-2.118-2.054-.404-1.215-.99-1.602-1.762-1.164zm.772 4.13c.134.162.128.266-.032.493-.201.288-.203.288-.455.01-.207-.23-.22-.32-.075-.495.222-.268.345-.27.562-.009zM5.12 13.493c-.181.087-.412.425-.548.802-.666 1.844-.973 2.19-2.136 2.407-.679.127-1.307.646-1.307 1.08 0 .446.433 1.041.814 1.12 1.555.318 1.937.64 2.421 2.041.353 1.02.703 1.412 1.265 1.412.612 0 .96-.362 1.284-1.333.166-.5.436-1.08.6-1.288.333-.424 1.045-.767 1.592-.767.506 0 1.056-.587 1.056-1.128 0-.581-.549-1.13-1.13-1.13-.985 0-1.649-.643-2.118-2.054-.408-1.225-.944-1.572-1.793-1.162zm23.497 1.92c.036.107-.113.166-.415.163-.446-.004-.456-.015-.194-.214.303-.228.522-.21.609.05zM5.922 17.622c.135.162.128.266-.031.494-.201.287-.203.287-.455.008-.207-.229-.22-.318-.075-.494.222-.267.345-.27.561-.008zm25.507.739l1.055.521 2.987.103c2.552.088 3.285.167 5.033.54 1.38.295 2.656.466 3.916.527l1.87.089v.457c0 .38-.064.473-.388.553-.795.198-3.25 1.487-4.424 2.323-.667.476-1.77 1.435-2.452 2.131l-1.239 1.267h-23.11v-3.606c0-3.051.036-3.675.23-4.058.313-.615.313-.615.556-.268.376.536 1.408 1.037 2.304 1.119 1.13.102 2.367-.296 4.25-1.366l1.481-.843 3.438-.005 3.438-.005 1.055.52zM35 21.227v1.129h2.259v-2.258H35v1.129zm19.408 1.336c6.585 1.068 11.65 5.99 13.076 12.706.232 1.093.232 4.693 0 5.786-1.383 6.51-6.145 11.273-12.655 12.655-1.093.233-4.694.233-5.787 0-4.905-1.041-8.84-3.954-11.047-8.177-2.444-4.675-2.48-9.834-.102-14.568 3.026-6.026 9.828-9.486 16.515-8.402zm-34.085 2.05v1.13h2.258v-2.258h-2.258v1.129z" fill="#fff"/><path fill-rule="evenodd" clip-rule="evenodd" d="M41.066 30.613c.602-1.217 1.756-2.16 3.037-2.484.233-.06 2.36-.096 4.728-.082 4.159.025 4.326.036 4.944.344 1.006.501 1.6 1.07 2.123 2.035l.484.893.046 3.113.047 3.113.504-.462c.883-.808 1.657-1.099 2.93-1.1 1.314-.003 2.09.285 3.013 1.119 1.243 1.122 1.61 2.62 1.299 5.308-.396 3.42-.956 4.595-2.605 5.465l-.718.379H43.962l-.892-.484c-.965-.523-1.534-1.117-2.035-2.123-.318-.637-.319-.662-.319-7.484V31.32l.35-.706zM61.884 42.89c.42-2.793.182-3.88-.969-4.437-.646-.313-1.22-.355-1.778-.133-.551.22-.849.555-1.304 1.465-.739 1.48-1.072 1.731-3.659 2.759-.804.32-1.604.713-1.777.874-.704.656-.494 1.981.386 2.436.372.193.966.219 4.09.183l3.654-.042.43-.411c.523-.502.655-.884.927-2.694zm-8.732-12.27c.214.16.52.466.68.68.277.37.294.602.333 4.595l.04 4.206-1.17.467c-1.566.626-2.127.994-2.635 1.732-.691 1.005-.903 2.491-.502 3.526.094.242-.049.253-2.732.212-3.101-.048-3.197-.073-3.9-1.015-.283-.378-.293-.583-.334-6.484-.023-3.351-.005-6.298.041-6.548.103-.565.696-1.286 1.264-1.538.335-.148 1.328-.183 4.478-.157 3.84.031 4.067.048 4.437.324z" fill="#DB3138"/></svg>