<svg width="70" height="57" fill="none" xmlns="http://www.w3.org/2000/svg"><path fill-rule="evenodd" clip-rule="evenodd" d="M51.794 2.718c-3.246 2.04-4.205 2.577-4.968 2.778l-.946.25-5.09-.62c-5.71-.695-6.538-.704-8.931-.094-.756.193-1.866.596-2.468.896-.602.3-3.94 2.385-7.42 4.634-6.494 4.2-6.836 4.465-7.086 5.499-.052.217-.328.544-.643.763-.303.21-.743.675-.978 1.032-.767 1.164-.845 1.689-.845 5.722v3.662H0v2.269h18.147c9.98 0 18.122.048 18.092.106-1.03 2.016-1.637 3.674-2.04 5.567-.354 1.665-.348 5.263.01 6.943 1.607 7.518 7.372 13.141 14.752 14.389 9.976 1.686 19.344-5.231 20.837-15.386.568-3.867-.115-7.5-2.166-11.513-.03-.058.49-.106 1.157-.106H70V27.24h-3.942l-1.199-1.25c-3.608-3.76-8.636-5.78-13.7-5.5-.931.05-1.9.13-2.152.176-.432.078-.459.058-.459-.337 0-.37.07-.44.6-.597 1.046-.311 2.681-1.253 3.775-2.175.582-.49 2.932-2.064 5.222-3.497 2.29-1.433 4.241-2.676 4.337-2.763.134-.122.045-.368-.398-1.099l-.57-.941-1.65 1.032-4.4 2.752c-1.514.946-3.096 2.02-3.515 2.386-1.253 1.093-2.494 1.832-3.795 2.26-1.126.372-1.393.404-3.204.392-1.657-.01-2.33-.087-4.164-.475-1.852-.392-2.62-.479-5.01-.565-1.552-.056-2.99-.173-3.195-.26-.711-.3-1.815-1.48-1.815-1.941 0-.043 1.715-.079 3.81-.079h3.811V12.49h-9.326l-4.949 2.76c-5.213 2.906-5.855 3.174-6.603 2.752-.501-.283-.693-.89-.428-1.355.197-.344 11.663-7.873 13.12-8.616 1.362-.693 3.456-1.21 4.93-1.217.433-.003 2.99.266 5.685.597 6.786.832 6.255.953 12.263-2.795 1.971-1.23 3.663-2.308 3.759-2.396.136-.125.055-.354-.37-1.047-.298-.488-.567-.91-.597-.936-.03-.027-1.865 1.09-4.077 2.48zm-38.74-.27c-.378.216-.44.325-.785 1.357-.356 1.064-.929 1.692-1.655 1.812-.88.147-1.268.356-1.443.78-.342.831.153 1.446 1.31 1.628.828.129 1.39.73 1.787 1.907.36 1.069.68 1.424 1.28 1.424.596 0 .947-.37 1.268-1.34.166-.503.436-1.085.6-1.293.333-.426 1.045-.77 1.592-.77.506 0 1.056-.592 1.056-1.135 0-.584-.548-1.135-1.13-1.135-.985 0-1.649-.647-2.118-2.064-.404-1.22-.99-1.61-1.762-1.17zm.772 4.15c.134.164.128.269-.032.497-.201.289-.203.289-.455.009-.207-.23-.22-.32-.075-.497.222-.269.345-.27.562-.008zM5.12 13.797c-.181.088-.412.428-.548.806-.666 1.854-.973 2.2-2.136 2.419-.679.127-1.307.65-1.307 1.086 0 .448.433 1.046.814 1.124 1.555.32 1.937.645 2.421 2.052.353 1.025.703 1.418 1.265 1.418.612 0 .96-.363 1.284-1.339.166-.503.436-1.085.6-1.294.333-.426 1.045-.77 1.592-.77.506 0 1.056-.591 1.056-1.135 0-.583-.549-1.134-1.13-1.134-.985 0-1.649-.647-2.118-2.065-.408-1.23-.944-1.58-1.793-1.168zm23.497 1.93c.036.108-.113.166-.415.163-.446-.004-.456-.015-.194-.214.303-.23.522-.211.609.05zM5.922 17.944c.135.163.128.268-.031.497-.201.289-.203.289-.455.009-.207-.23-.22-.32-.075-.497.222-.269.345-.271.561-.009zm25.507.743l1.055.524 2.987.104c2.552.088 3.285.167 5.033.542 1.38.296 2.656.469 3.916.53l1.87.089v.46c0 .382-.064.474-.388.555-.795.198-3.25 1.494-4.424 2.335-.667.478-1.77 1.441-2.452 2.141l-1.239 1.273h-23.11v-3.624c0-3.066.036-3.693.23-4.077.313-.619.313-.619.556-.27.376.54 1.408 1.043 2.304 1.124 1.13.103 2.367-.297 4.25-1.373l1.481-.846 3.438-.005 3.438-.006 1.055.524zM35 21.567V22.7h2.259v-2.269H35v1.135zm19.408 1.343c6.585 1.073 11.65 6.019 13.076 12.768.232 1.099.232 4.716 0 5.815C66.1 48.035 61.339 52.82 54.829 54.21c-1.093.233-4.694.233-5.787 0-4.905-1.047-8.84-3.974-11.047-8.217-2.444-4.699-2.48-9.883-.102-14.64 3.026-6.056 9.828-9.533 16.515-8.443zm-34.085 2.06v1.135h2.258v-2.269h-2.258v1.135z" fill="#fff"/></svg>